<svg width="769" height="769" viewBox="0 0 769 769" fill="none" xmlns="http://www.w3.org/2000/svg">
<g clip-path="url(#clip0_738_32)">
<path d="M488.193 261.511C485.92 238.595 476.167 220.792 458.932 208.102C441.697 195.413 418.307 189.068 388.761 189.068C368.686 189.068 351.735 191.909 337.909 197.591C324.083 203.083 313.477 210.754 306.091 220.602C298.894 230.451 295.295 241.625 295.295 254.125C294.917 264.542 297.095 273.633 301.83 281.398C306.754 289.163 313.477 295.886 322 301.568C330.523 307.061 340.371 311.89 351.545 316.057C362.72 320.034 374.652 323.443 387.341 326.284L439.614 338.784C464.992 344.466 488.288 352.042 509.5 361.511C530.712 370.981 549.083 382.629 564.614 396.455C580.144 410.28 592.17 426.568 600.693 445.318C609.405 464.068 613.856 485.564 614.045 509.807C613.856 545.413 604.765 576.284 586.773 602.42C568.97 628.367 543.212 648.538 509.5 662.932C475.977 677.136 435.542 684.239 388.193 684.239C341.223 684.239 300.314 677.042 265.466 662.648C230.807 648.254 203.723 626.947 184.216 598.727C164.898 570.318 154.765 535.186 153.818 493.33H272.852C274.178 512.837 279.765 529.125 289.614 542.193C299.652 555.072 313.004 564.826 329.67 571.455C346.527 577.894 365.561 581.114 386.773 581.114C407.606 581.114 425.693 578.083 441.034 572.023C456.564 565.962 468.591 557.534 477.114 546.739C485.636 535.943 489.898 523.538 489.898 509.523C489.898 496.455 486.015 485.47 478.25 476.568C470.674 467.667 459.5 460.091 444.727 453.841C430.144 447.591 412.246 441.909 391.034 436.795L327.682 420.886C278.629 408.955 239.898 390.299 211.489 364.92C183.08 339.542 168.97 305.356 169.159 262.364C168.97 227.136 178.345 196.36 197.284 170.034C216.413 143.708 242.644 123.159 275.977 108.386C309.311 93.6136 347.189 86.2273 389.614 86.2273C432.795 86.2273 470.485 93.6136 502.682 108.386C535.068 123.159 560.258 143.708 578.25 170.034C596.242 196.36 605.523 226.852 606.091 261.511H488.193Z" fill="#9C85C0"/>
</g>
<defs>
<clipPath id="clip0_738_32">
<rect width="769" height="769" fill="white"/>
</clipPath>
</defs>
</svg>
